<svg xmlns="http://www.w3.org/2000/svg" viewBox="0 0 800 533" fill="none">
  <defs>
    <linearGradient id="bg5" x1="0%" y1="0%" x2="100%" y2="100%">
      <stop offset="0%" stop-color="#7C2D12"/>
      <stop offset="100%" stop-color="#9A3412"/>
    </linearGradient>
  </defs>
  <rect width="800" height="533" fill="url(#bg5)"/>
  <!-- Balloon arch left -->
  <circle cx="80" cy="400" r="38" fill="#F87171" opacity="0.9"/>
  <circle cx="60" cy="360" r="34" fill="#FCA5A5" opacity="0.8"/>
  <circle cx="90" cy="328" r="36" fill="#F59E0B" opacity="0.9"/>
  <circle cx="70" cy="292" r="32" fill="#FCD34D" opacity="0.8"/>
  <circle cx="100" cy="262" r="34" fill="#C084FC" opacity="0.9"/>
  <circle cx="80" cy="232" r="30" fill="#A78BFA" opacity="0.8"/>
  <!-- Balloon arch right -->
  <circle cx="720" cy="400" r="38" fill="#34D399" opacity="0.9"/>
  <circle cx="740" cy="360" r="34" fill="#6EE7B7" opacity="0.8"/>
  <circle cx="710" cy="328" r="36" fill="#F59E0B" opacity="0.9"/>
  <circle cx="730" cy="292" r="32" fill="#FCD34D" opacity="0.8"/>
  <circle cx="700" cy="262" r="34" fill="#EC4899" opacity="0.9"/>
  <circle cx="720" cy="232" r="30" fill="#F9A8D4" opacity="0.8"/>
  <!-- Backdrop banner -->
  <rect x="160" y="100" width="480" height="300" rx="12" fill="#FBBF24" opacity="0.15" stroke="#FCD34D" stroke-width="3"/>
  <text x="400" y="200" text-anchor="middle" fill="#FCD34D" font-family="sans-serif" font-size="36" font-weight="800">🎉</text>
  <text x="400" y="256" text-anchor="middle" fill="white" font-family="sans-serif" font-size="28" font-weight="700" opacity="0.9">Happy Birthday!</text>
  <text x="400" y="296" text-anchor="middle" fill="white" font-family="sans-serif" font-size="16" opacity="0.7">Customisable backdrop for your event</text>
  <!-- Streamers -->
  <path d="M160 100 Q180 60 200 100" stroke="#EC4899" stroke-width="3" fill="none"/>
  <path d="M280 100 Q300 50 320 100" stroke="#F59E0B" stroke-width="3" fill="none"/>
  <path d="M480 100 Q500 50 520 100" stroke="#34D399" stroke-width="3" fill="none"/>
  <path d="M600 100 Q620 60 640 100" stroke="#A78BFA" stroke-width="3" fill="none"/>
  <!-- Label -->
  <text x="400" y="490" text-anchor="middle" fill="white" opacity="0.7" font-family="sans-serif" font-size="16" font-weight="600">Decoration & Balloon Arch Setup</text>
</svg>
