<svg xmlns="http://www.w3.org/2000/svg" viewBox="0 0 800 533" fill="none">
  <defs>
    <linearGradient id="bg2" x1="0%" y1="0%" x2="100%" y2="100%">
      <stop offset="0%" stop-color="#0F172A"/>
      <stop offset="100%" stop-color="#1E1B4B"/>
    </linearGradient>
  </defs>
  <rect width="800" height="533" fill="url(#bg2)"/>
  <!-- Fairy lights string -->
  <path d="M0 120 Q200 100 400 130 Q600 160 800 120" stroke="#FCD34D" stroke-width="2" fill="none" opacity="0.8"/>
  <!-- Hanging bulbs -->
  <circle cx="80" cy="132" r="8" fill="#FBBF24" opacity="0.9"/>
  <circle cx="200" cy="115" r="6" fill="#FDE68A" opacity="0.9"/>
  <circle cx="320" cy="128" r="8" fill="#FBBF24" opacity="0.9"/>
  <circle cx="440" cy="138" r="6" fill="#FDE68A" opacity="0.9"/>
  <circle cx="560" cy="148" r="8" fill="#FBBF24" opacity="0.9"/>
  <circle cx="680" cy="128" r="6" fill="#FDE68A" opacity="0.9"/>
  <circle cx="770" cy="118" r="8" fill="#FBBF24" opacity="0.9"/>
  <!-- Second string -->
  <path d="M0 200 Q200 180 400 210 Q600 240 800 200" stroke="#C084FC" stroke-width="1.5" fill="none" opacity="0.6"/>
  <!-- Glow dots -->
  <circle cx="150" cy="192" r="5" fill="#C084FC" opacity="0.8"/>
  <circle cx="300" cy="200" r="5" fill="#A78BFA" opacity="0.8"/>
  <circle cx="500" cy="218" r="5" fill="#C084FC" opacity="0.8"/>
  <circle cx="700" cy="208" r="5" fill="#A78BFA" opacity="0.8"/>
  <!-- Tables silhouette -->
  <rect x="100" y="380" width="180" height="12" rx="6" fill="white" opacity="0.2"/>
  <rect x="520" y="380" width="180" height="12" rx="6" fill="white" opacity="0.2"/>
  <rect x="310" y="380" width="180" height="12" rx="6" fill="white" opacity="0.2"/>
  <!-- Centre glow -->
  <ellipse cx="400" cy="266" rx="200" ry="120" fill="#7B42D1" opacity="0.1"/>
  <!-- Label -->
  <text x="400" y="490" text-anchor="middle" fill="white" opacity="0.7" font-family="sans-serif" font-size="16" font-weight="600">Fairy-Light Decorated Hall</text>
</svg>
